<svg viewBox="0 0 96 96" xmlns="http://www.w3.org/2000/svg" xmlns:xlink="http://www.w3.org/1999/xlink"><title>icon</title><defs><path d="M30.047 8.758a.915.915 0 0 0 .446-.116l12.199-6.835a.914.914 0 1 0-.894-1.594L29.6 7.046a.914.914 0 0 0 .447 1.712z" id="a"/><mask id="g" x="-1" y="-1" width="16.026" height="10.662"><path fill="#fff" d="M28.133-.904h16.026V9.758H28.133z"/><use xlink:href="#a"/></mask><path d="M46.136 24.492L32.46 21.585a.914.914 0 0 0-.38 1.787l13.676 2.907a.914.914 0 0 0 .38-1.787z" id="b"/><mask id="h" x="-1" y="-1" width="17.504" height="6.734"><path fill="#fff" d="M30.356 20.564H47.86v6.734H30.356z"/><use xlink:href="#b"/></mask><path d="M45 13.06a.921.921 0 0 0-1.041-.766l-12.937 1.963a.915.915 0 0 0 .135 1.818.974.974 0 0 0 .138-.01L44.232 14.1A.914.914 0 0 0 45 13.06z" id="c"/><mask id="i" x="-1" y="-1" width="16.766" height="5.79"><path fill="#fff" d="M29.244 11.285H46.01v5.79H29.244z"/><use xlink:href="#c"/></mask><path id="d" d="M2.917 23.83l-.776-5.11L23.888 6.732l3.077 20.265z"/><mask id="j" x="0" y="0" width="24.824" height="20.265" fill="#fff"><use xlink:href="#d"/></mask><path id="e" d="M11.243 35.39l-2.21.336L7.6 26.29l2.307.304z"/><mask id="k" x="0" y="0" width="3.642" height="9.434" fill="#fff"><use xlink:href="#e"/></mask><path d="M25.499 5.162a.917.917 0 0 0-1.345-.662L.701 17.426a.914.914 0 0 0-.463.938l.974 6.42c.062.402.381.716.785.769l3.717.49 1.649 10.861a.915.915 0 0 0 1.042.766l4.017-.61a.915.915 0 0 0 .767-1.042l-1.393-9.175 16.136 2.126c.04.006.08.008.119.008h.007a.92.92 0 0 0 .875-1.197L25.499 5.162z" id="f"/><mask id="l" x="0" y="0" width="28.75" height="33.294" fill="#fff"><use xlink:href="#f"/></mask></defs><g fill="none" fill-rule="evenodd"><g transform="translate(25.56 29.127)"><use fill="#0275D8" xlink:href="#a"/><use stroke="#0275D8" mask="url(#g)" stroke-width="2" xlink:href="#a"/><use fill="#0275D8" xlink:href="#b"/><use stroke="#0275D8" mask="url(#h)" stroke-width="2" xlink:href="#b"/><use fill="#0275D8" xlink:href="#c"/><use stroke="#0275D8" mask="url(#i)" stroke-width="2" xlink:href="#c"/><use stroke="#0275D8" mask="url(#j)" stroke-width="2" fill="#0275D8" xlink:href="#d"/><use stroke="#0275D8" mask="url(#k)" stroke-width="2" fill="#0275D8" xlink:href="#e"/><use stroke="#0275D8" mask="url(#l)" stroke-width="2" fill="#0275D8" xlink:href="#f"/></g><path d="M95.812 45.231c0-24.86-20.228-45.088-45.088-45.088S5.636 20.371 5.636 45.231a45.095 45.095 0 0 0 5.039 20.684L.209 92.095a2.804 2.804 0 0 0 .62 3.037 2.84 2.84 0 0 0 1.995.823c.35 0 .71-.068 1.037-.203L30.034 85.28a45.099 45.099 0 0 0 20.69 5.039c24.86 0 45.088-20.228 45.088-45.088zM50.724 84.683c-6.684 0-13.301-1.713-19.14-4.965a2.842 2.842 0 0 0-2.418-.152L7.88 88.082l8.516-21.293c.321-.79.26-1.68-.152-2.418a39.448 39.448 0 0 1-4.965-19.14c0-21.755 17.702-39.452 39.452-39.452 21.749 0 39.446 17.697 39.446 39.452S72.473 84.683 50.724 84.683z" fill="#0275D8"/></g></svg>